Playfair Display-Bold.ufo
<glyph name="E-cy" format="1">
  <advance width="719"/>
  <unicode hex="0404"/>
  <outline>
    <contour>
      <point x="192" y="722"/>
      <point x="36" y="572"/>
      <point x="36" y="348" type="curve" smooth="yes"/>
      <point x="36" y="119"/>
      <point x="187" y="-14"/>
      <point x="413" y="-14" type="curve" smooth="yes"/>
      <point x="499" y="-14"/>
      <point x="549" y="16"/>
      <point x="598" y="51" type="curve" smooth="yes"/>
      <point x="627" y="70"/>
      <point x="638" y="57"/>
      <point x="643" y="0" type="curve"/>
      <point x="666" y="0" type="line"/>
      <point x="663" y="55"/>
      <point x="662" y="129"/>
      <point x="662" y="260" type="curve"/>
      <point x="639" y="260" type="line"/>
      <point x="630" y="151"/>
      <point x="614" y="84"/>
      <point x="547" y="43" type="curve" smooth="yes"/>
      <point x="519" y="25"/>
      <point x="487" y="13"/>
      <point x="454" y="13" type="curve" smooth="yes"/>
      <point x="301" y="13"/>
      <point x="266" y="202"/>
      <point x="266" y="352" type="curve" smooth="yes"/>
      <point x="266" y="502"/>
      <point x="301" y="691"/>
      <point x="454" y="691" type="curve" smooth="yes"/>
      <point x="487" y="691"/>
      <point x="520" y="680"/>
      <point x="547" y="661" type="curve" smooth="yes"/>
      <point x="607" y="619"/>
      <point x="621" y="586"/>
      <point x="639" y="518" type="curve"/>
      <point x="662" y="518" type="line"/>
      <point x="662" y="614"/>
      <point x="663" y="667"/>
      <point x="666" y="708" type="curve"/>
      <point x="643" y="708" type="line"/>
      <point x="638" y="651"/>
      <point x="624" y="637"/>
      <point x="598" y="657" type="curve" smooth="yes"/>
      <point x="554" y="691"/>
      <point x="502" y="722"/>
      <point x="414" y="722" type="curve" smooth="yes"/>
    </contour>
    <contour>
      <point x="340" y="469"/>
      <point x="280" y="402"/>
      <point x="262" y="258" type="curve"/>
      <point x="266" y="253" type="line"/>
      <point x="284" y="301"/>
      <point x="322" y="321"/>
      <point x="354" y="321" type="curve" smooth="yes"/>
      <point x="416" y="321"/>
      <point x="452" y="249"/>
      <point x="519" y="249" type="curve" smooth="yes"/>
      <point x="574" y="249"/>
      <point x="623" y="320"/>
      <point x="640" y="464" type="curve"/>
      <point x="622" y="467" type="line"/>
      <point x="610" y="412"/>
      <point x="576" y="397"/>
      <point x="557" y="397" type="curve" smooth="yes"/>
      <point x="501" y="397"/>
      <point x="461" y="469"/>
      <point x="394" y="469" type="curve" smooth="yes"/>
    </contour>
  </outline>
</glyph>
<glyph name="Tshe-cy" format="1">
  <advance width="937"/>
  <unicode hex="040B"/>
  <outline>
    <contour>
      <point x="559" y="406"/>
      <point x="486" y="384"/>
      <point x="451" y="370" type="curve"/>
      <point x="451" y="350" type="line"/>
      <point x="485" y="364"/>
      <point x="538" y="374"/>
      <point x="584" y="374" type="curve" smooth="yes"/>
      <point x="659" y="374"/>
      <point x="672" y="347"/>
      <point x="672" y="259" type="curve" smooth="yes"/>
      <point x="672" y="106" type="line" smooth="yes"/>
      <point x="672" y="33"/>
      <point x="661" y="23"/>
      <point x="601" y="20" type="curve"/>
      <point x="601" y="0" type="line"/>
      <point x="640" y="2"/>
      <point x="705" y="3"/>
      <point x="772" y="3" type="curve" smooth="yes"/>
      <point x="839" y="3"/>
      <point x="908" y="2"/>
      <point x="946" y="0" type="curve"/>
      <point x="946" y="20" type="line"/>
      <point x="885" y="23"/>
      <point x="875" y="33"/>
      <point x="875" y="106" type="curve" smooth="yes"/>
      <point x="875" y="227" type="line" smooth="yes"/>
      <point x="875" y="298"/>
      <point x="859" y="341"/>
      <point x="807" y="371" type="curve" smooth="yes"/>
      <point x="767" y="394"/>
      <point x="710" y="406"/>
      <point x="646" y="406" type="curve" smooth="yes"/>
    </contour>
    <component base="T"/>
  </outline>
</glyph>
<glyph name="Zhe-cy" format="1">
  <advance width="1066"/>
  <unicode hex="0416"/>
  <outline>
    <contour>
      <point x="592" y="379" type="line"/>
      <point x="592" y="363" type="line"/>
      <point x="601" y="363" type="line" smooth="yes"/>
      <point x="692" y="363"/>
      <point x="724" y="343"/>
      <point x="736" y="266" type="curve" smooth="yes"/>
      <point x="762" y="94" type="line" smooth="yes"/>
      <point x="774" y="13"/>
      <point x="827" y="-14"/>
      <point x="916" y="-14" type="curve" smooth="yes"/>
      <point x="977" y="-14"/>
      <point x="1025" y="-1"/>
      <point x="1066" y="40" type="curve"/>
      <point x="1053" y="53" type="line"/>
      <point x="1044" y="44"/>
      <point x="1035" y="40"/>
      <point x="1023" y="40" type="curve" smooth="yes"/>
      <point x="999" y="40"/>
      <point x="987" y="55"/>
      <point x="977" y="105" type="curve" smooth="yes"/>
      <point x="948" y="244" type="line" smooth="yes"/>
      <point x="925" y="351"/>
      <point x="821" y="379"/>
      <point x="625" y="379" type="curve" smooth="yes"/>
    </contour>
    <contour>
      <point x="436" y="379" type="line" smooth="yes"/>
      <point x="246" y="379"/>
      <point x="146" y="351"/>
      <point x="124" y="244" type="curve" smooth="yes"/>
      <point x="93" y="105" type="line" smooth="yes"/>
      <point x="83" y="55"/>
      <point x="71" y="40"/>
      <point x="47" y="40" type="curve" smooth="yes"/>
      <point x="35" y="40"/>
      <point x="26" y="44"/>
      <point x="17" y="53" type="curve"/>
      <point x="4" y="40" type="line"/>
      <point x="42" y="-1"/>
      <point x="88" y="-14"/>
      <point x="145" y="-14" type="curve" smooth="yes"/>
      <point x="234" y="-14"/>
      <point x="287" y="13"/>
      <point x="299" y="94" type="curve" smooth="yes"/>
      <point x="325" y="266" type="line" smooth="yes"/>
      <point x="337" y="343"/>
      <point x="369" y="363"/>
      <point x="460" y="363" type="curve" smooth="yes"/>
      <point x="469" y="363" type="line"/>
      <point x="469" y="379" type="line"/>
    </contour>
    <contour>
      <point x="114" y="722"/>
      <point x="40" y="695"/>
      <point x="40" y="614" type="curve" smooth="yes"/>
      <point x="40" y="548"/>
      <point x="90" y="508"/>
      <point x="154" y="508" type="curve" smooth="yes"/>
      <point x="206" y="508"/>
      <point x="241" y="535"/>
      <point x="241" y="585" type="curve" smooth="yes"/>
      <point x="241" y="641"/>
      <point x="196" y="685"/>
      <point x="137" y="695" type="curve"/>
      <point x="144" y="700"/>
      <point x="156" y="703"/>
      <point x="171" y="703" type="curve" smooth="yes"/>
      <point x="215" y="703"/>
      <point x="247" y="676"/>
      <point x="259" y="648" type="curve" smooth="yes"/>
      <point x="285" y="591"/>
      <point x="259" y="481"/>
      <point x="299" y="424" type="curve" smooth="yes"/>
      <point x="323" y="390"/>
      <point x="371" y="367"/>
      <point x="463" y="368" type="curve"/>
      <point x="464" y="378" type="line"/>
      <point x="382" y="382"/>
      <point x="341" y="404"/>
      <point x="320" y="434" type="curve" smooth="yes"/>
      <point x="280" y="492"/>
      <point x="311" y="598"/>
      <point x="277" y="660" type="curve" smooth="yes"/>
      <point x="244" y="721"/>
      <point x="172" y="722"/>
      <point x="163" y="722" type="curve" smooth="yes"/>
    </contour>
    <contour>
      <point x="889" y="722"/>
      <point x="817" y="721"/>
      <point x="784" y="660" type="curve" smooth="yes"/>
      <point x="750" y="598"/>
      <point x="781" y="492"/>
      <point x="741" y="434" type="curve" smooth="yes"/>
      <point x="720" y="404"/>
      <point x="679" y="382"/>
      <point x="597" y="378" type="curve"/>
      <point x="598" y="368" type="line"/>
      <point x="690" y="367"/>
      <point x="738" y="390"/>
      <point x="762" y="424" type="curve" smooth="yes"/>
      <point x="802" y="481"/>
      <point x="776" y="591"/>
      <point x="802" y="648" type="curve" smooth="yes"/>
      <point x="814" y="676"/>
      <point x="846" y="703"/>
      <point x="890" y="703" type="curve" smooth="yes"/>
      <point x="905" y="703"/>
      <point x="917" y="700"/>
      <point x="924" y="695" type="curve"/>
      <point x="865" y="685"/>
      <point x="820" y="641"/>
      <point x="820" y="585" type="curve" smooth="yes"/>
      <point x="820" y="535"/>
      <point x="855" y="508"/>
      <point x="907" y="508" type="curve" smooth="yes"/>
      <point x="971" y="508"/>
      <point x="1021" y="548"/>
      <point x="1021" y="614" type="curve" smooth="yes"/>
      <point x="1021" y="695"/>
      <point x="947" y="722"/>
      <point x="898" y="722" type="curve" smooth="yes"/>
    </contour>
    <component base="I" xOffset="330"/>
  </outline>
</glyph>
<glyph name="Ka-cy" format="1">
  <advance width="750"/>
  <unicode hex="041A"/>
  <outline>
    <contour>
      <point x="334" y="706"/>
      <point x="268" y="705"/>
      <point x="206" y="705" type="curve" smooth="yes"/>
      <point x="134" y="705"/>
      <point x="66" y="706"/>
      <point x="28" y="708" type="curve"/>
      <point x="28" y="688" type="line"/>
      <point x="88" y="685"/>
      <point x="99" y="675"/>
      <point x="99" y="602" type="curve" smooth="yes"/>
      <point x="99" y="106" type="line" smooth="yes"/>
      <point x="99" y="33"/>
      <point x="89" y="23"/>
      <point x="28" y="20" type="curve"/>
      <point x="28" y="0" type="line"/>
      <point x="66" y="2"/>
      <point x="134" y="3"/>
      <point x="206" y="3" type="curve" smooth="yes"/>
      <point x="268" y="3"/>
      <point x="334" y="2"/>
      <point x="373" y="0" type="curve"/>
      <point x="373" y="20" type="line"/>
      <point x="313" y="23"/>
      <point x="302" y="33"/>
      <point x="302" y="106" type="curve" smooth="yes"/>
      <point x="302" y="602" type="line" smooth="yes"/>
      <point x="302" y="675"/>
      <point x="312" y="685"/>
      <point x="373" y="688" type="curve"/>
      <point x="373" y="708" type="line"/>
    </contour>
    <contour>
      <point x="569" y="722"/>
      <point x="497" y="721"/>
      <point x="464" y="660" type="curve" smooth="yes"/>
      <point x="430" y="598"/>
      <point x="461" y="492"/>
      <point x="421" y="434" type="curve" smooth="yes"/>
      <point x="400" y="404"/>
      <point x="359" y="382"/>
      <point x="277" y="378" type="curve"/>
      <point x="278" y="368" type="line"/>
      <point x="370" y="367"/>
      <point x="418" y="390"/>
      <point x="442" y="424" type="curve" smooth="yes"/>
      <point x="482" y="481"/>
      <point x="456" y="591"/>
      <point x="482" y="648" type="curve" smooth="yes"/>
      <point x="494" y="676"/>
      <point x="526" y="703"/>
      <point x="570" y="703" type="curve" smooth="yes"/>
      <point x="585" y="703"/>
      <point x="597" y="700"/>
      <point x="604" y="695" type="curve"/>
      <point x="545" y="685"/>
      <point x="500" y="641"/>
      <point x="500" y="585" type="curve" smooth="yes"/>
      <point x="500" y="535"/>
      <point x="535" y="508"/>
      <point x="587" y="508" type="curve" smooth="yes"/>
      <point x="651" y="508"/>
      <point x="701" y="548"/>
      <point x="701" y="614" type="curve" smooth="yes"/>
      <point x="701" y="695"/>
      <point x="627" y="722"/>
      <point x="578" y="722" type="curve" smooth="yes"/>
    </contour>
    <contour>
      <point x="272" y="379" type="line"/>
      <point x="272" y="363" type="line"/>
      <point x="281" y="363" type="line" smooth="yes"/>
      <point x="372" y="363"/>
      <point x="403" y="343"/>
      <point x="416" y="266" type="curve" smooth="yes"/>
      <point x="442" y="94" type="line" smooth="yes"/>
      <point x="454" y="13"/>
      <point x="507" y="-14"/>
      <point x="596" y="-14" type="curve" smooth="yes"/>
      <point x="657" y="-14"/>
      <point x="705" y="-1"/>
      <point x="746" y="40" type="curve"/>
      <point x="733" y="53" type="line"/>
      <point x="724" y="44"/>
      <point x="715" y="40"/>
      <point x="703" y="40" type="curve" smooth="yes"/>
      <point x="679" y="40"/>
      <point x="666" y="55"/>
      <point x="657" y="105" type="curve" smooth="yes"/>
      <point x="628" y="244" type="line" smooth="yes"/>
      <point x="605" y="351"/>
      <point x="501" y="379"/>
      <point x="305" y="379" type="curve" smooth="yes"/>
    </contour>
    <contour>
      <point x="375" y="708" type="move" name="top"/>
    </contour>
  </outline>
</glyph>
<glyph name="Ereversed-cy" format="1">
  <advance width="715"/>
  <unicode hex="042D"/>
  <outline>
    <contour>
      <point x="243" y="722"/>
      <point x="173" y="692"/>
      <point x="124" y="657" type="curve" smooth="yes"/>
      <point x="95" y="638"/>
      <point x="84" y="651"/>
      <point x="79" y="708" type="curve"/>
      <point x="56" y="708" type="line"/>
      <point x="59" y="659"/>
      <point x="60" y="594"/>
      <point x="60" y="478" type="curve"/>
      <point x="83" y="478" type="line"/>
      <point x="92" y="572"/>
      <point x="114" y="622"/>
      <point x="175" y="665" type="curve" smooth="yes"/>
      <point x="202" y="684"/>
      <point x="255" y="695"/>
      <point x="288" y="695" type="curve" smooth="yes"/>
      <point x="441" y="695"/>
      <point x="448" y="506"/>
      <point x="448" y="356" type="curve" smooth="yes"/>
      <point x="448" y="206"/>
      <point x="413" y="17"/>
      <point x="260" y="17" type="curve" smooth="yes"/>
      <point x="227" y="17"/>
      <point x="195" y="29"/>
      <point x="167" y="47" type="curve" smooth="yes"/>
      <point x="116" y="80"/>
      <point x="92" y="129"/>
      <point x="75" y="200" type="curve"/>
      <point x="52" y="200" type="line"/>
      <point x="52" y="104"/>
      <point x="51" y="41"/>
      <point x="48" y="0" type="curve"/>
      <point x="71" y="0" type="line"/>
      <point x="76" y="57"/>
      <point x="90" y="71"/>
      <point x="116" y="51" type="curve" smooth="yes"/>
      <point x="160" y="17"/>
      <point x="212" y="-14"/>
      <point x="300" y="-14" type="curve" smooth="yes"/>
      <point x="532" y="-14"/>
      <point x="678" y="136"/>
      <point x="678" y="360" type="curve" smooth="yes"/>
      <point x="678" y="589"/>
      <point x="555" y="722"/>
      <point x="329" y="722" type="curve" smooth="yes"/>
    </contour>
    <contour>
      <point x="143" y="469"/>
      <point x="94" y="398"/>
      <point x="77" y="254" type="curve"/>
      <point x="95" y="251" type="line"/>
      <point x="107" y="306"/>
      <point x="141" y="321"/>
      <point x="160" y="321" type="curve" smooth="yes"/>
      <point x="216" y="321"/>
      <point x="256" y="249"/>
      <point x="323" y="249" type="curve" smooth="yes"/>
      <point x="377" y="249"/>
      <point x="437" y="316"/>
      <point x="455" y="460" type="curve"/>
      <point x="451" y="465" type="line"/>
      <point x="433" y="417"/>
      <point x="395" y="397"/>
      <point x="363" y="397" type="curve" smooth="yes"/>
      <point x="301" y="397"/>
      <point x="265" y="469"/>
      <point x="198" y="469" type="curve" smooth="yes"/>
    </contour>
  </outline>
</glyph>
<glyph name="Ia-cy" format="1">
  <advance width="717"/>
  <unicode hex="042F"/>
  <outline>
    <contour>
      <point x="651" y="706"/>
      <point x="581" y="705"/>
      <point x="517" y="705" type="curve" smooth="yes"/>
      <point x="450" y="705"/>
      <point x="382" y="707"/>
      <point x="356" y="707" type="curve" smooth="yes"/>
      <point x="153" y="707"/>
      <point x="55" y="648"/>
      <point x="55" y="523" type="curve" smooth="yes"/>
      <point x="55" y="419"/>
      <point x="123" y="336"/>
      <point x="378" y="336" type="curve" smooth="yes"/>
      <point x="474" y="336" type="line"/>
      <point x="474" y="336"/>
      <point x="474" y="356"/>
      <point x="474" y="356" type="curve"/>
      <point x="388" y="356" type="line" smooth="yes"/>
      <point x="286" y="356"/>
      <point x="265" y="430"/>
      <point x="265" y="522" type="curve" smooth="yes"/>
      <point x="265" y="627"/>
      <point x="290" y="688"/>
      <point x="361" y="688" type="curve" smooth="yes"/>
      <point x="406" y="688"/>
      <point x="415" y="671"/>
      <point x="415" y="602" type="curve" smooth="yes"/>
      <point x="415" y="106" type="line" smooth="yes"/>
      <point x="415" y="33"/>
      <point x="404" y="23"/>
      <point x="344" y="20" type="curve"/>
      <point x="344" y="0" type="line"/>
      <point x="383" y="2"/>
      <point x="449" y="3"/>
      <point x="511" y="3" type="curve" smooth="yes"/>
      <point x="583" y="3"/>
      <point x="651" y="2"/>
      <point x="689" y="0" type="curve"/>
      <point x="689" y="20" type="line"/>
      <point x="628" y="23"/>
      <point x="618" y="33"/>
      <point x="618" y="106" type="curve" smooth="yes"/>
      <point x="618" y="602" type="line" smooth="yes"/>
      <point x="618" y="675"/>
      <point x="629" y="685"/>
      <point x="689" y="688" type="curve"/>
      <point x="689" y="708" type="line"/>
    </contour>
    <contour>
      <point x="373" y="348"/>
      <point x="344" y="345"/>
      <point x="307" y="339" type="curve" smooth="yes"/>
      <point x="176" y="324"/>
      <point x="101" y="295"/>
      <point x="85" y="209" type="curve" smooth="yes"/>
      <point x="66" y="105" type="line" smooth="yes"/>
      <point x="57" y="55"/>
      <point x="44" y="40"/>
      <point x="21" y="40" type="curve" smooth="yes"/>
      <point x="8" y="40"/>
      <point x="-1" y="44"/>
      <point x="-10" y="53" type="curve"/>
      <point x="-23" y="40" type="line"/>
      <point x="15" y="-1"/>
      <point x="64" y="-14"/>
      <point x="123" y="-14" type="curve" smooth="yes"/>
      <point x="208" y="-14"/>
      <point x="263" y="12"/>
      <point x="275" y="94" type="curve" smooth="yes"/>
      <point x="290" y="194" type="line" smooth="yes"/>
      <point x="302" y="276"/>
      <point x="319" y="336"/>
      <point x="370" y="336" type="curve" smooth="yes"/>
      <point x="478" y="336" type="line"/>
      <point x="480" y="353" type="line"/>
    </contour>
  </outline>
</glyph>
<glyph name="be-cy" format="1">
  <advance width="590"/>
  <unicode hex="0431"/>
  <outline>
    <contour>
      <point x="532" y="745"/>
      <point x="495" y="739"/>
      <point x="435" y="732" type="curve" smooth="yes"/>
      <point x="382" y="726"/>
      <point x="324" y="720"/>
      <point x="281" y="712" type="curve" smooth="yes"/>
      <point x="227" y="702"/>
      <point x="188" y="687"/>
      <point x="155" y="656" type="curve" smooth="yes"/>
      <point x="72" y="578"/>
      <point x="45" y="409"/>
      <point x="45" y="281" type="curve" smooth="yes"/>
      <point x="45" y="107"/>
      <point x="95" y="-14"/>
      <point x="300" y="-14" type="curve" smooth="yes"/>
      <point x="457" y="-14"/>
      <point x="559" y="57"/>
      <point x="559" y="257" type="curve" smooth="yes"/>
      <point x="559" y="461"/>
      <point x="452" y="533"/>
      <point x="315" y="533" type="curve" smooth="yes"/>
      <point x="168" y="533"/>
      <point x="50" y="450"/>
      <point x="50" y="269" type="curve" smooth="yes"/>
      <point x="157" y="356" type="line"/>
      <point x="63" y="345" type="line"/>
      <point x="90" y="532"/>
      <point x="115" y="536"/>
      <point x="284" y="564" type="curve" smooth="yes"/>
      <point x="342" y="574"/>
      <point x="352" y="573"/>
      <point x="386" y="579" type="curve" smooth="yes"/>
      <point x="433" y="587"/>
      <point x="474" y="596"/>
      <point x="507" y="626" type="curve" smooth="yes"/>
      <point x="536" y="653"/>
      <point x="558" y="696"/>
      <point x="572" y="782" type="curve"/>
      <point x="557" y="785" type="line"/>
    </contour>
    <contour>
      <point x="342" y="513"/>
      <point x="372" y="438"/>
      <point x="372" y="259" type="curve" smooth="yes"/>
      <point x="372" y="80"/>
      <point x="342" y="6"/>
      <point x="302" y="6" type="curve" smooth="yes"/>
      <point x="262" y="6"/>
      <point x="232" y="80"/>
      <point x="232" y="259" type="curve" smooth="yes"/>
      <point x="232" y="438"/>
      <point x="262" y="513"/>
      <point x="302" y="513" type="curve" smooth="yes"/>
    </contour>
  </outline>
</glyph>
<glyph name="zhe-cy" format="1">
  <advance width="911"/>
  <unicode hex="0436"/>
  <outline>
    <contour>
      <point x="672" y="533"/>
      <point x="660" y="482"/>
      <point x="639" y="392" type="curve" smooth="yes"/>
      <point x="620" y="310"/>
      <point x="611" y="279"/>
      <point x="541" y="274" type="curve"/>
      <point x="541" y="257" type="line"/>
      <point x="580" y="255"/>
      <point x="596" y="245"/>
      <point x="608" y="229" type="curve" smooth="yes"/>
      <point x="629" y="201"/>
      <point x="658" y="112"/>
      <point x="665" y="69" type="curve" smooth="yes"/>
      <point x="669" y="43"/>
      <point x="667" y="21"/>
      <point x="640" y="21" type="curve"/>
      <point x="640" y="0" type="line"/>
      <point x="669" y="1"/>
      <point x="739" y="4"/>
      <point x="787" y="4" type="curve" smooth="yes"/>
      <point x="835" y="4"/>
      <point x="881" y="1"/>
      <point x="902" y="0" type="curve"/>
      <point x="902" y="21" type="line"/>
      <point x="874" y="25"/>
      <point x="865" y="40"/>
      <point x="851" y="76" type="curve" smooth="yes"/>
      <point x="819" y="158"/>
      <point x="818" y="192"/>
      <point x="787" y="229" type="curve" smooth="yes"/>
      <point x="756" y="266"/>
      <point x="704" y="295"/>
      <point x="591" y="275" type="curve"/>
      <point x="590" y="268" type="line"/>
      <point x="632" y="283"/>
      <point x="641" y="314"/>
      <point x="655" y="375" type="curve" smooth="yes"/>
      <point x="675" y="466"/>
      <point x="681" y="508"/>
      <point x="749" y="512" type="curve"/>
      <point x="707" y="490"/>
      <point x="691" y="456"/>
      <point x="691" y="425" type="curve" smooth="yes"/>
      <point x="691" y="366"/>
      <point x="748" y="345"/>
      <point x="788" y="345" type="curve" smooth="yes"/>
      <point x="839" y="345"/>
      <point x="877" y="378"/>
      <point x="877" y="437" type="curve" smooth="yes"/>
      <point x="877" y="493"/>
      <point x="842" y="533"/>
      <point x="762" y="533" type="curve" smooth="yes"/>
    </contour>
    <contour>
      <point x="68" y="533"/>
      <point x="33" y="493"/>
      <point x="33" y="437" type="curve" smooth="yes"/>
      <point x="33" y="378"/>
      <point x="71" y="345"/>
      <point x="122" y="345" type="curve" smooth="yes"/>
      <point x="162" y="345"/>
      <point x="219" y="366"/>
      <point x="219" y="425" type="curve" smooth="yes"/>
      <point x="219" y="456"/>
      <point x="203" y="490"/>
      <point x="161" y="512" type="curve"/>
      <point x="230" y="508"/>
      <point x="235" y="464"/>
      <point x="255" y="375" type="curve" smooth="yes"/>
      <point x="268" y="315"/>
      <point x="279" y="282"/>
      <point x="320" y="268" type="curve"/>
      <point x="319" y="275" type="line"/>
      <point x="206" y="295"/>
      <point x="154" y="266"/>
      <point x="123" y="229" type="curve" smooth="yes"/>
      <point x="92" y="192"/>
      <point x="86" y="144"/>
      <point x="59" y="76" type="curve" smooth="yes"/>
      <point x="45" y="41"/>
      <point x="36" y="25"/>
      <point x="8" y="21" type="curve"/>
      <point x="8" y="0" type="line"/>
      <point x="29" y="1"/>
      <point x="75" y="4"/>
      <point x="123" y="4" type="curve" smooth="yes"/>
      <point x="171" y="4"/>
      <point x="241" y="1"/>
      <point x="270" y="0" type="curve"/>
      <point x="270" y="21" type="line"/>
      <point x="243" y="21"/>
      <point x="241" y="43"/>
      <point x="245" y="69" type="curve" smooth="yes"/>
      <point x="250" y="100"/>
      <point x="277" y="195"/>
      <point x="302" y="229" type="curve" smooth="yes"/>
      <point x="316" y="248"/>
      <point x="337" y="256"/>
      <point x="369" y="257" type="curve"/>
      <point x="369" y="274" type="line"/>
      <point x="298" y="279"/>
      <point x="290" y="311"/>
      <point x="271" y="392" type="curve" smooth="yes"/>
      <point x="250" y="482"/>
      <point x="238" y="533"/>
      <point x="148" y="533" type="curve" smooth="yes"/>
    </contour>
    <contour>
      <point x="574" y="517"/>
      <point x="514" y="514"/>
      <point x="460" y="514" type="curve" smooth="yes"/>
      <point x="406" y="514"/>
      <point x="338" y="517"/>
      <point x="309" y="518" type="curve"/>
      <point x="309" y="497" type="line"/>
      <point x="350" y="497"/>
      <point x="365" y="481"/>
      <point x="365" y="425" type="curve" smooth="yes"/>
      <point x="365" y="93" type="line" smooth="yes"/>
      <point x="365" y="37"/>
      <point x="353" y="21"/>
      <point x="319" y="21" type="curve"/>
      <point x="319" y="0" type="line"/>
      <point x="344" y="1"/>
      <point x="402" y="4"/>
      <point x="452" y="4" type="curve" smooth="yes"/>
      <point x="502" y="4"/>
      <point x="564" y="1"/>
      <point x="591" y="0" type="curve"/>
      <point x="591" y="21" type="line"/>
      <point x="557" y="21"/>
      <point x="545" y="37"/>
      <point x="545" y="93" type="curve" smooth="yes"/>
      <point x="545" y="425" type="line" smooth="yes"/>
      <point x="545" y="481"/>
      <point x="560" y="497"/>
      <point x="601" y="497" type="curve"/>
      <point x="601" y="518" type="line"/>
    </contour>
  </outline>
</glyph>
<glyph name="ka-cy" format="1">
  <advance width="642"/>
  <unicode hex="043A"/>
  <outline>
    <contour>
      <point x="406" y="533"/>
      <point x="392" y="482"/>
      <point x="370" y="392" type="curve" smooth="yes"/>
      <point x="350" y="310"/>
      <point x="336" y="279"/>
      <point x="253" y="274" type="curve"/>
      <point x="253" y="256" type="line"/>
      <point x="303" y="261"/>
      <point x="325" y="246"/>
      <point x="339" y="228" type="curve" smooth="yes"/>
      <point x="368" y="191"/>
      <point x="392" y="100"/>
      <point x="397" y="69" type="curve" smooth="yes"/>
      <point x="402" y="41"/>
      <point x="397" y="21"/>
      <point x="372" y="21" type="curve"/>
      <point x="372" y="0" type="line"/>
      <point x="401" y="1"/>
      <point x="471" y="4"/>
      <point x="519" y="4" type="curve" smooth="yes"/>
      <point x="567" y="4"/>
      <point x="613" y="1"/>
      <point x="634" y="0" type="curve"/>
      <point x="634" y="21" type="line"/>
      <point x="606" y="25"/>
      <point x="597" y="41"/>
      <point x="583" y="76" type="curve" smooth="yes"/>
      <point x="556" y="143"/>
      <point x="550" y="193"/>
      <point x="519" y="229" type="curve" smooth="yes"/>
      <point x="484" y="269"/>
      <point x="417" y="294"/>
      <point x="303" y="275" type="curve"/>
      <point x="302" y="268" type="line"/>
      <point x="356" y="283"/>
      <point x="371" y="315"/>
      <point x="386" y="375" type="curve" smooth="yes"/>
      <point x="409" y="466"/>
      <point x="412" y="508"/>
      <point x="481" y="512" type="curve"/>
      <point x="439" y="490"/>
      <point x="423" y="455"/>
      <point x="423" y="427" type="curve" smooth="yes"/>
      <point x="423" y="365"/>
      <point x="480" y="345"/>
      <point x="520" y="345" type="curve" smooth="yes"/>
      <point x="571" y="345"/>
      <point x="609" y="378"/>
      <point x="609" y="437" type="curve" smooth="yes"/>
      <point x="609" y="493"/>
      <point x="574" y="533"/>
      <point x="495" y="533" type="curve" smooth="yes"/>
    </contour>
    <contour>
      <point x="286" y="517"/>
      <point x="225" y="514"/>
      <point x="173" y="514" type="curve" smooth="yes"/>
      <point x="117" y="514"/>
      <point x="50" y="517"/>
      <point x="21" y="518" type="curve"/>
      <point x="21" y="497" type="line"/>
      <point x="62" y="497"/>
      <point x="77" y="481"/>
      <point x="77" y="425" type="curve" smooth="yes"/>
      <point x="77" y="93" type="line" smooth="yes"/>
      <point x="77" y="37"/>
      <point x="62" y="21"/>
      <point x="21" y="21" type="curve"/>
      <point x="21" y="0" type="line"/>
      <point x="48" y="1"/>
      <point x="111" y="4"/>
      <point x="163" y="4" type="curve" smooth="yes"/>
      <point x="219" y="4"/>
      <point x="284" y="1"/>
      <point x="313" y="0" type="curve"/>
      <point x="313" y="21" type="line"/>
      <point x="272" y="21"/>
      <point x="257" y="37"/>
      <point x="257" y="93" type="curve" smooth="yes"/>
      <point x="257" y="425" type="line" smooth="yes"/>
      <point x="257" y="481"/>
      <point x="272" y="497"/>
      <point x="313" y="497" type="curve"/>
      <point x="313" y="518" type="line"/>
    </contour>
    <contour>
      <point x="321" y="514" type="move" name="top"/>
    </contour>
  </outline>
</glyph>
<glyph name="ef-cy" format="1">
  <advance width="876"/>
  <unicode hex="0444"/>
  <outline>
    <contour>
      <point x="478" y="710"/>
      <point x="421" y="706"/>
      <point x="354" y="706" type="curve" smooth="yes"/>
      <point x="334" y="706"/>
      <point x="313" y="707"/>
      <point x="292" y="709" type="curve"/>
      <point x="292" y="688" type="line"/>
      <point x="334" y="688"/>
      <point x="348" y="660"/>
      <point x="348" y="600" type="curve" smooth="yes"/>
      <point x="348" y="-78" type="line" smooth="yes"/>
      <point x="348" y="-143"/>
      <point x="316" y="-160"/>
      <point x="262" y="-160" type="curve"/>
      <point x="262" y="-181" type="line"/>
      <point x="297" y="-180"/>
      <point x="368" y="-177"/>
      <point x="438" y="-177" type="curve" smooth="yes"/>
      <point x="508" y="-177"/>
      <point x="579" y="-180"/>
      <point x="614" y="-181" type="curve"/>
      <point x="614" y="-160" type="line"/>
      <point x="560" y="-160"/>
      <point x="528" y="-143"/>
      <point x="528" y="-78" type="curve" smooth="yes"/>
      <point x="528" y="720" type="line"/>
    </contour>
    <contour>
      <point x="116" y="533"/>
      <point x="32" y="444"/>
      <point x="32" y="263" type="curve" smooth="yes"/>
      <point x="32" y="67"/>
      <point x="121" y="-14"/>
      <point x="236" y="-14" type="curve" smooth="yes"/>
      <point x="290" y="-14"/>
      <point x="323" y="-2"/>
      <point x="348" y="21" type="curve"/>
      <point x="348" y="40" type="line"/>
      <point x="337" y="34"/>
      <point x="318" y="28"/>
      <point x="299" y="28" type="curve" smooth="yes"/>
      <point x="249" y="28"/>
      <point x="219" y="75"/>
      <point x="219" y="260" type="curve" smooth="yes"/>
      <point x="219" y="422"/>
      <point x="246" y="500"/>
      <point x="301" y="500" type="curve" smooth="yes"/>
      <point x="320" y="500"/>
      <point x="343" y="493"/>
      <point x="360" y="478" type="curve"/>
      <point x="371" y="489" type="line"/>
      <point x="340" y="520"/>
      <point x="302" y="533"/>
      <point x="244" y="533" type="curve" smooth="yes"/>
    </contour>
    <contour>
      <point x="606" y="533"/>
      <point x="557" y="521"/>
      <point x="528" y="498" type="curve"/>
      <point x="528" y="479" type="line"/>
      <point x="536" y="485"/>
      <point x="558" y="491"/>
      <point x="575" y="491" type="curve" smooth="yes"/>
      <point x="627" y="491"/>
      <point x="657" y="444"/>
      <point x="657" y="259" type="curve" smooth="yes"/>
      <point x="657" y="97"/>
      <point x="630" y="16"/>
      <point x="563" y="16" type="curve" smooth="yes"/>
      <point x="546" y="16"/>
      <point x="527" y="20"/>
      <point x="516" y="35" type="curve"/>
      <point x="506" y="22" type="line"/>
      <point x="532" y="-6"/>
      <point x="576" y="-14"/>
      <point x="621" y="-14" type="curve" smooth="yes"/>
      <point x="741" y="-14"/>
      <point x="844" y="55"/>
      <point x="844" y="282" type="curve" smooth="yes"/>
      <point x="844" y="452"/>
      <point x="769" y="533"/>
      <point x="670" y="533" type="curve" smooth="yes"/>
    </contour>
  </outline>
</glyph>
<glyph name="che-cy" format="1">
  <advance width="619"/>
  <unicode hex="0447"/>
  <outline>
    <contour>
      <point x="569" y="517"/>
      <point x="504" y="514"/>
      <point x="448" y="514" type="curve" smooth="yes"/>
      <point x="396" y="514"/>
      <point x="341" y="517"/>
      <point x="316" y="518" type="curve"/>
      <point x="316" y="497" type="line"/>
      <point x="350" y="497"/>
      <point x="362" y="481"/>
      <point x="362" y="425" type="curve"/>
      <point x="362" y="103" type="line" smooth="yes"/>
      <point x="362" y="38"/>
      <point x="330" y="21"/>
      <point x="276" y="21" type="curve"/>
      <point x="276" y="0" type="line"/>
      <point x="313" y="1"/>
      <point x="386" y="4"/>
      <point x="460" y="4" type="curve" smooth="yes"/>
      <point x="514" y="4"/>
      <point x="571" y="1"/>
      <point x="598" y="0" type="curve"/>
      <point x="598" y="21" type="line"/>
      <point x="557" y="21"/>
      <point x="542" y="37"/>
      <point x="542" y="93" type="curve" smooth="yes"/>
      <point x="542" y="425" type="line" smooth="yes"/>
      <point x="542" y="481"/>
      <point x="557" y="497"/>
      <point x="598" y="497" type="curve"/>
      <point x="598" y="518" type="line"/>
    </contour>
    <contour>
      <point x="260" y="517"/>
      <point x="200" y="514"/>
      <point x="146" y="514" type="curve" smooth="yes"/>
      <point x="92" y="514"/>
      <point x="32" y="517"/>
      <point x="5" y="518" type="curve"/>
      <point x="5" y="497" type="line"/>
      <point x="46" y="497"/>
      <point x="61" y="481"/>
      <point x="61" y="425" type="curve" smooth="yes"/>
      <point x="61" y="314" type="line" smooth="yes"/>
      <point x="61" y="267"/>
      <point x="63" y="233"/>
      <point x="90" y="208" type="curve" smooth="yes"/>
      <point x="113" y="186"/>
      <point x="152" y="176"/>
      <point x="205" y="176" type="curve" smooth="yes"/>
      <point x="273" y="176"/>
      <point x="333" y="193"/>
      <point x="362" y="206" type="curve"/>
      <point x="362" y="223" type="line"/>
      <point x="348" y="215"/>
      <point x="328" y="211"/>
      <point x="308" y="211" type="curve" smooth="yes"/>
      <point x="246" y="211"/>
      <point x="241" y="241"/>
      <point x="241" y="313" type="curve" smooth="yes"/>
      <point x="241" y="425" type="line" smooth="yes"/>
      <point x="241" y="481"/>
      <point x="253" y="497"/>
      <point x="287" y="497" type="curve"/>
      <point x="287" y="518" type="line"/>
    </contour>
  </outline>
</glyph>
<glyph name="sha-cy" format="1">
  <advance width="976"/>
  <unicode hex="0448"/>
  <outline>
    <contour>
      <point x="926" y="517"/>
      <point x="861" y="514"/>
      <point x="805" y="514" type="curve" smooth="yes"/>
      <point x="753" y="514"/>
      <point x="698" y="517"/>
      <point x="673" y="518" type="curve"/>
      <point x="673" y="497" type="line"/>
      <point x="707" y="497"/>
      <point x="719" y="481"/>
      <point x="719" y="425" type="curve" smooth="yes"/>
      <point x="719" y="93" type="line" smooth="yes"/>
      <point x="719" y="37"/>
      <point x="707" y="21"/>
      <point x="673" y="21" type="curve" smooth="yes"/>
      <point x="624" y="21" type="line" smooth="yes"/>
      <point x="590" y="21"/>
      <point x="578" y="37"/>
      <point x="578" y="93" type="curve" smooth="yes"/>
      <point x="578" y="425" type="line" smooth="yes"/>
      <point x="578" y="481"/>
      <point x="590" y="497"/>
      <point x="624" y="497" type="curve"/>
      <point x="624" y="518" type="line"/>
      <point x="597" y="517"/>
      <point x="536" y="514"/>
      <point x="484" y="514" type="curve" smooth="yes"/>
      <point x="432" y="514"/>
      <point x="377" y="517"/>
      <point x="352" y="518" type="curve"/>
      <point x="352" y="497" type="line"/>
      <point x="386" y="497"/>
      <point x="398" y="481"/>
      <point x="398" y="425" type="curve" smooth="yes"/>
      <point x="398" y="93" type="line" smooth="yes"/>
      <point x="398" y="37"/>
      <point x="386" y="21"/>
      <point x="352" y="21" type="curve" smooth="yes"/>
      <point x="303" y="21" type="line" smooth="yes"/>
      <point x="269" y="21"/>
      <point x="257" y="37"/>
      <point x="257" y="93" type="curve" smooth="yes"/>
      <point x="257" y="425" type="line" smooth="yes"/>
      <point x="257" y="481"/>
      <point x="269" y="497"/>
      <point x="303" y="497" type="curve"/>
      <point x="303" y="518" type="line"/>
      <point x="276" y="517"/>
      <point x="217" y="514"/>
      <point x="161" y="514" type="curve" smooth="yes"/>
      <point x="109" y="514"/>
      <point x="48" y="517"/>
      <point x="21" y="518" type="curve"/>
      <point x="21" y="497" type="line"/>
      <point x="62" y="497"/>
      <point x="77" y="481"/>
      <point x="77" y="425" type="curve" smooth="yes"/>
      <point x="77" y="93" type="line" smooth="yes"/>
      <point x="77" y="37"/>
      <point x="62" y="21"/>
      <point x="21" y="21" type="curve"/>
      <point x="21" y="0" type="line"/>
      <point x="50" y="1"/>
      <point x="115" y="4"/>
      <point x="171" y="4" type="curve" smooth="yes"/>
      <point x="219" y="4"/>
      <point x="257" y="0"/>
      <point x="332" y="0" type="curve" smooth="yes"/>
      <point x="404" y="0"/>
      <point x="450" y="4"/>
      <point x="494" y="4" type="curve" smooth="yes"/>
      <point x="534" y="4"/>
      <point x="582" y="0"/>
      <point x="653" y="0" type="curve" smooth="yes"/>
      <point x="725" y="0"/>
      <point x="771" y="4"/>
      <point x="815" y="4" type="curve" smooth="yes"/>
      <point x="867" y="4"/>
      <point x="928" y="1"/>
      <point x="955" y="0" type="curve"/>
      <point x="955" y="21" type="line"/>
      <point x="914" y="21"/>
      <point x="899" y="37"/>
      <point x="899" y="93" type="curve" smooth="yes"/>
      <point x="899" y="425" type="line" smooth="yes"/>
      <point x="899" y="481"/>
      <point x="914" y="497"/>
      <point x="955" y="497" type="curve"/>
      <point x="955" y="518" type="line"/>
    </contour>
  </outline>
</glyph>
<glyph name="shcha-cy" format="1">
  <advance width="990"/>
  <unicode hex="0449"/>
  <outline>
    <contour>
      <point x="926" y="517"/>
      <point x="861" y="514"/>
      <point x="805" y="514" type="curve" smooth="yes"/>
      <point x="753" y="514"/>
      <point x="698" y="517"/>
      <point x="673" y="518" type="curve"/>
      <point x="673" y="497" type="line"/>
      <point x="707" y="497"/>
      <point x="719" y="481"/>
      <point x="719" y="425" type="curve" smooth="yes"/>
      <point x="719" y="93" type="line" smooth="yes"/>
      <point x="719" y="37"/>
      <point x="707" y="21"/>
      <point x="673" y="21" type="curve" smooth="yes"/>
      <point x="624" y="21" type="line" smooth="yes"/>
      <point x="590" y="21"/>
      <point x="578" y="37"/>
      <point x="578" y="93" type="curve" smooth="yes"/>
      <point x="578" y="425" type="line" smooth="yes"/>
      <point x="578" y="481"/>
      <point x="590" y="497"/>
      <point x="624" y="497" type="curve"/>
      <point x="624" y="518" type="line"/>
      <point x="597" y="517"/>
      <point x="536" y="514"/>
      <point x="484" y="514" type="curve" smooth="yes"/>
      <point x="432" y="514"/>
      <point x="377" y="517"/>
      <point x="352" y="518" type="curve"/>
      <point x="352" y="497" type="line"/>
      <point x="386" y="497"/>
      <point x="398" y="481"/>
      <point x="398" y="425" type="curve" smooth="yes"/>
      <point x="398" y="93" type="line" smooth="yes"/>
      <point x="398" y="37"/>
      <point x="386" y="21"/>
      <point x="352" y="21" type="curve" smooth="yes"/>
      <point x="303" y="21" type="line" smooth="yes"/>
      <point x="269" y="21"/>
      <point x="257" y="37"/>
      <point x="257" y="93" type="curve" smooth="yes"/>
      <point x="257" y="425" type="line" smooth="yes"/>
      <point x="257" y="481"/>
      <point x="269" y="497"/>
      <point x="303" y="497" type="curve"/>
      <point x="303" y="518" type="line"/>
      <point x="276" y="517"/>
      <point x="217" y="514"/>
      <point x="161" y="514" type="curve" smooth="yes"/>
      <point x="109" y="514"/>
      <point x="48" y="517"/>
      <point x="21" y="518" type="curve"/>
      <point x="21" y="497" type="line"/>
      <point x="62" y="497"/>
      <point x="77" y="481"/>
      <point x="77" y="425" type="curve" smooth="yes"/>
      <point x="77" y="93" type="line" smooth="yes"/>
      <point x="77" y="37"/>
      <point x="62" y="21"/>
      <point x="21" y="21" type="curve"/>
      <point x="21" y="0" type="line"/>
      <point x="50" y="1"/>
      <point x="115" y="4"/>
      <point x="171" y="4" type="curve" smooth="yes"/>
      <point x="219" y="4"/>
      <point x="257" y="0"/>
      <point x="332" y="0" type="curve" smooth="yes"/>
      <point x="404" y="0"/>
      <point x="450" y="4"/>
      <point x="494" y="4" type="curve" smooth="yes"/>
      <point x="534" y="4"/>
      <point x="582" y="0"/>
      <point x="653" y="0" type="curve" smooth="yes"/>
      <point x="708" y="0"/>
      <point x="743" y="1"/>
      <point x="775" y="1" type="curve" smooth="yes"/>
      <point x="877" y="1"/>
      <point x="924" y="-39"/>
      <point x="948" y="-157" type="curve"/>
      <point x="971" y="-157" type="line"/>
      <point x="969" y="-142"/>
      <point x="968" y="-119"/>
      <point x="968" y="-95" type="curve" smooth="yes"/>
      <point x="968" y="-72"/>
      <point x="970" y="-26"/>
      <point x="975" y="21" type="curve"/>
      <point x="920" y="21"/>
      <point x="899" y="37"/>
      <point x="899" y="93" type="curve" smooth="yes"/>
      <point x="899" y="425" type="line" smooth="yes"/>
      <point x="899" y="481"/>
      <point x="914" y="497"/>
      <point x="955" y="497" type="curve"/>
      <point x="955" y="518" type="line"/>
    </contour>
  </outline>
</glyph>
<glyph name="ereversed-cy" format="1">
  <advance width="534"/>
  <unicode hex="044D"/>
  <outline>
    <contour>
      <point x="200" y="533"/>
      <point x="157" y="521"/>
      <point x="114" y="498" type="curve" smooth="yes"/>
      <point x="97" y="489"/>
      <point x="78" y="483"/>
      <point x="69" y="533" type="curve"/>
      <point x="46" y="533" type="line"/>
      <point x="49" y="500"/>
      <point x="50" y="455"/>
      <point x="50" y="379" type="curve"/>
      <point x="73" y="379" type="line"/>
      <point x="79" y="411"/>
      <point x="90" y="436"/>
      <point x="106" y="455" type="curve" smooth="yes"/>
      <point x="133" y="487"/>
      <point x="167" y="503"/>
      <point x="204" y="503" type="curve" smooth="yes"/>
      <point x="270" y="503"/>
      <point x="317" y="433"/>
      <point x="317" y="251" type="curve" smooth="yes"/>
      <point x="317" y="67"/>
      <point x="248" y="14"/>
      <point x="177" y="14" type="curve" smooth="yes"/>
      <point x="167" y="14"/>
      <point x="154" y="15"/>
      <point x="142" y="17" type="curve"/>
      <point x="181" y="27"/>
      <point x="214" y="57"/>
      <point x="214" y="96" type="curve" smooth="yes"/>
      <point x="214" y="139"/>
      <point x="175" y="167"/>
      <point x="116" y="167" type="curve" smooth="yes"/>
      <point x="58" y="167"/>
      <point x="26" y="135"/>
      <point x="26" y="94" type="curve" smooth="yes"/>
      <point x="26" y="59"/>
      <point x="47" y="31"/>
      <point x="76" y="13" type="curve" smooth="yes"/>
      <point x="116" y="-9"/>
      <point x="169" y="-14"/>
      <point x="214" y="-14" type="curve" smooth="yes"/>
      <point x="393" y="-14"/>
      <point x="504" y="72"/>
      <point x="504" y="261" type="curve" smooth="yes"/>
      <point x="504" y="456"/>
      <point x="403" y="533"/>
      <point x="254" y="533" type="curve" smooth="yes"/>
    </contour>
    <contour>
      <point x="303" y="298"/>
      <point x="280" y="296"/>
      <point x="269" y="296" type="curve" smooth="yes"/>
      <point x="207" y="296"/>
      <point x="181" y="336"/>
      <point x="141" y="336" type="curve" smooth="yes"/>
      <point x="91" y="336"/>
      <point x="67" y="304"/>
      <point x="44" y="234" type="curve"/>
      <point x="58" y="227" type="line"/>
      <point x="75" y="255"/>
      <point x="88" y="262"/>
      <point x="107" y="262" type="curve" smooth="yes"/>
      <point x="139" y="262"/>
      <point x="182" y="221"/>
      <point x="219" y="221" type="curve" smooth="yes"/>
      <point x="263" y="221"/>
      <point x="295" y="241"/>
      <point x="324" y="311" type="curve"/>
      <point x="321" y="328" type="line"/>
    </contour>
  </outline>
</glyph>
<glyph name="dje-cy" format="1">
  <advance width="612"/>
  <unicode hex="0452"/>
  <outline>
    <contour>
      <point x="204" y="772"/>
      <point x="147" y="768"/>
      <point x="80" y="768" type="curve" smooth="yes"/>
      <point x="60" y="768"/>
      <point x="39" y="769"/>
      <point x="18" y="771" type="curve"/>
      <point x="18" y="750" type="line"/>
      <point x="60" y="750"/>
      <point x="74" y="722"/>
      <point x="74" y="662" type="curve" smooth="yes"/>
      <point x="74" y="93" type="line" smooth="yes"/>
      <point x="74" y="37"/>
      <point x="59" y="21"/>
      <point x="18" y="21" type="curve"/>
      <point x="18" y="0" type="line"/>
      <point x="47" y="1"/>
      <point x="112" y="4"/>
      <point x="168" y="4" type="curve" smooth="yes"/>
      <point x="220" y="4"/>
      <point x="275" y="1"/>
      <point x="300" y="0" type="curve"/>
      <point x="300" y="21" type="line"/>
      <point x="266" y="21"/>
      <point x="254" y="37"/>
      <point x="254" y="93" type="curve" smooth="yes"/>
      <point x="254" y="409" type="line" smooth="yes"/>
      <point x="254" y="451"/>
      <point x="289" y="481"/>
      <point x="326" y="481" type="curve" smooth="yes"/>
      <point x="361" y="481"/>
      <point x="375" y="460"/>
      <point x="375" y="418" type="curve" smooth="yes"/>
      <point x="375" y="80" type="line" smooth="yes"/>
      <point x="375" y="15"/>
      <point x="377" y="-85"/>
      <point x="363" y="-118" type="curve" smooth="yes"/>
      <point x="351" y="-147"/>
      <point x="330" y="-167"/>
      <point x="296" y="-167" type="curve" smooth="yes"/>
      <point x="289" y="-167"/>
      <point x="278" y="-167"/>
      <point x="266" y="-165" type="curve"/>
      <point x="305" y="-156"/>
      <point x="333" y="-136"/>
      <point x="333" y="-102" type="curve" smooth="yes"/>
      <point x="333" y="-59"/>
      <point x="287" y="-37"/>
      <point x="229" y="-37" type="curve" smooth="yes"/>
      <point x="160" y="-37"/>
      <point x="125" y="-75"/>
      <point x="125" y="-110" type="curve" smooth="yes"/>
      <point x="125" y="-180"/>
      <point x="246" y="-188"/>
      <point x="292" y="-188" type="curve" smooth="yes"/>
      <point x="407" y="-188"/>
      <point x="454" y="-166"/>
      <point x="484" y="-138" type="curve" smooth="yes"/>
      <point x="534" y="-91"/>
      <point x="555" y="-38"/>
      <point x="555" y="80" type="curve" smooth="yes"/>
      <point x="555" y="364" type="line" smooth="yes"/>
      <point x="555" y="432"/>
      <point x="546" y="469"/>
      <point x="526" y="493" type="curve" smooth="yes"/>
      <point x="507" y="516"/>
      <point x="474" y="533"/>
      <point x="413" y="533" type="curve" smooth="yes"/>
      <point x="341" y="533"/>
      <point x="286" y="511"/>
      <point x="254" y="458" type="curve"/>
      <point x="254" y="782" type="line"/>
    </contour>
    <contour>
      <point x="11" y="628" type="line"/>
      <point x="11" y="608" type="line"/>
      <point x="398" y="608" type="line"/>
      <point x="398" y="628" type="line"/>
    </contour>
  </outline>
</glyph>
<glyph name="e-cy" format="1">
  <advance width="506"/>
  <unicode hex="0454"/>
  <outline>
    <contour>
      <point x="138" y="533"/>
      <point x="30" y="451"/>
      <point x="30" y="256" type="curve" smooth="yes"/>
      <point x="30" y="57"/>
      <point x="143" y="-14"/>
      <point x="263" y="-14" type="curve" smooth="yes"/>
      <point x="394" y="-14"/>
      <point x="452" y="71"/>
      <point x="480" y="156" type="curve"/>
      <point x="463" y="162" type="line"/>
      <point x="419" y="101"/>
      <point x="369" y="95"/>
      <point x="341" y="95" type="curve" smooth="yes"/>
      <point x="266" y="95"/>
      <point x="207" y="131"/>
      <point x="207" y="299" type="curve" smooth="yes"/>
      <point x="207" y="421"/>
      <point x="239" y="511"/>
      <point x="325" y="511" type="curve" smooth="yes"/>
      <point x="337" y="511"/>
      <point x="339" y="509"/>
      <point x="348" y="507" type="curve"/>
      <point x="302" y="482"/>
      <point x="281" y="453"/>
      <point x="281" y="418" type="curve" smooth="yes"/>
      <point x="281" y="374"/>
      <point x="316" y="342"/>
      <point x="370" y="342" type="curve" smooth="yes"/>
      <point x="431" y="342"/>
      <point x="469" y="380"/>
      <point x="469" y="426" type="curve" smooth="yes"/>
      <point x="469" y="463"/>
      <point x="453" y="486"/>
      <point x="425" y="503" type="curve" smooth="yes"/>
      <point x="395" y="521"/>
      <point x="351" y="533"/>
      <point x="292" y="533" type="curve" smooth="yes"/>
    </contour>
    <contour>
      <point x="267" y="316"/>
      <point x="235" y="296"/>
      <point x="206" y="226" type="curve"/>
      <point x="209" y="209" type="line"/>
      <point x="227" y="239"/>
      <point x="250" y="241"/>
      <point x="261" y="241" type="curve" smooth="yes"/>
      <point x="323" y="241"/>
      <point x="339" y="201"/>
      <point x="379" y="201" type="curve" smooth="yes"/>
      <point x="429" y="201"/>
      <point x="453" y="233"/>
      <point x="476" y="303" type="curve"/>
      <point x="462" y="310" type="line"/>
      <point x="445" y="282"/>
      <point x="432" y="275"/>
      <point x="413" y="275" type="curve" smooth="yes"/>
      <point x="381" y="275"/>
      <point x="348" y="316"/>
      <point x="311" y="316" type="curve" smooth="yes"/>
    </contour>
  </outline>
</glyph>
<glyph name="tshe-cy" format="1">
  <advance width="622"/>
  <unicode hex="045B"/>
  <outline>
    <contour>
      <point x="11" y="628" type="line"/>
      <point x="11" y="608" type="line"/>
      <point x="398" y="608" type="line"/>
      <point x="398" y="628" type="line"/>
    </contour>
    <component base="h"/>
  </outline>
</glyph>
<glyph name="breve-cy.smcp" format="1">
  <advance width="553"/>
  <outline>
    <contour>
      <point x="379" y="867"/>
      <point x="339" y="834"/>
      <point x="339" y="791" type="curve" smooth="yes"/>
      <point x="339" y="754"/>
      <point x="368" y="729"/>
      <point x="411" y="718" type="curve"/>
      <point x="368" y="707"/>
      <point x="315" y="702"/>
      <point x="276" y="702" type="curve" smooth="yes"/>
      <point x="236" y="702"/>
      <point x="183" y="707"/>
      <point x="140" y="717" type="curve"/>
      <point x="179" y="727"/>
      <point x="214" y="751"/>
      <point x="214" y="791" type="curve" smooth="yes"/>
      <point x="214" y="835"/>
      <point x="172" y="867"/>
      <point x="116" y="867" type="curve" smooth="yes"/>
      <point x="58" y="867"/>
      <point x="20" y="833"/>
      <point x="20" y="793" type="curve" smooth="yes"/>
      <point x="20" y="757"/>
      <point x="50" y="731"/>
      <point x="86" y="715" type="curve" smooth="yes"/>
      <point x="126" y="697"/>
      <point x="192" y="682"/>
      <point x="276" y="682" type="curve" smooth="yes"/>
      <point x="359" y="682"/>
      <point x="425" y="697"/>
      <point x="465" y="715" type="curve" smooth="yes"/>
      <point x="503" y="732"/>
      <point x="533" y="758"/>
      <point x="533" y="793" type="curve" smooth="yes"/>
      <point x="533" y="834"/>
      <point x="492" y="867"/>
      <point x="436" y="867" type="curve" smooth="yes"/>
    </contour>
    <contour>
      <point x="275" y="514" type="move" name="_top"/>
    </contour>
  </outline>
</glyph>
<glyph name="che-cy.smcp" format="1">
  <advance width="782"/>
  <outline>
    <contour>
      <point x="302" y="606"/>
      <point x="241" y="605"/>
      <point x="178" y="605" type="curve" smooth="yes"/>
      <point x="111" y="605"/>
      <point x="42" y="606"/>
      <point x="4" y="608" type="curve"/>
      <point x="4" y="588" type="line"/>
      <point x="65" y="585"/>
      <point x="75" y="575"/>
      <point x="75" y="502" type="curve" smooth="yes"/>
      <point x="75" y="401" type="line" smooth="yes"/>
      <point x="75" y="330"/>
      <point x="91" y="287"/>
      <point x="143" y="257" type="curve" smooth="yes"/>
      <point x="184" y="234"/>
      <point x="240" y="222"/>
      <point x="302" y="222" type="curve" smooth="yes"/>
      <point x="387" y="222"/>
      <point x="456" y="244"/>
      <point x="489" y="258" type="curve"/>
      <point x="489" y="278" type="line"/>
      <point x="458" y="264"/>
      <point x="409" y="254"/>
      <point x="365" y="254" type="curve" smooth="yes"/>
      <point x="282" y="254"/>
      <point x="268" y="282"/>
      <point x="268" y="369" type="curve" smooth="yes"/>
      <point x="268" y="502" type="line" smooth="yes"/>
      <point x="268" y="575"/>
      <point x="278" y="585"/>
      <point x="339" y="588" type="curve"/>
      <point x="339" y="608" type="line"/>
    </contour>
    <contour>
      <point x="716" y="606"/>
      <point x="654" y="605"/>
      <point x="596" y="605" type="curve" smooth="yes"/>
      <point x="524" y="605"/>
      <point x="456" y="606"/>
      <point x="418" y="608" type="curve"/>
      <point x="418" y="588" type="line"/>
      <point x="478" y="585"/>
      <point x="489" y="575"/>
      <point x="489" y="502" type="curve" smooth="yes"/>
      <point x="489" y="116" type="line" smooth="yes"/>
      <point x="489" y="34"/>
      <point x="470" y="23"/>
      <point x="378" y="23" type="curve"/>
      <point x="378" y="0" type="line"/>
      <point x="423" y="1"/>
      <point x="501" y="3"/>
      <point x="584" y="3" type="curve" smooth="yes"/>
      <point x="642" y="3"/>
      <point x="702" y="1"/>
      <point x="753" y="0" type="curve"/>
      <point x="753" y="20" type="line"/>
      <point x="692" y="23"/>
      <point x="682" y="33"/>
      <point x="682" y="106" type="curve" smooth="yes"/>
      <point x="682" y="502" type="line" smooth="yes"/>
      <point x="682" y="575"/>
      <point x="692" y="585"/>
      <point x="753" y="588" type="curve"/>
      <point x="753" y="608" type="line"/>
    </contour>
  </outline>
</glyph>
<glyph name="e-cy.smcp" format="1">
  <advance width="671"/>
  <outline>
    <contour>
      <point x="183" y="622"/>
      <point x="35" y="492"/>
      <point x="35" y="298" type="curve" smooth="yes"/>
      <point x="35" y="99"/>
      <point x="178" y="-14"/>
      <point x="374" y="-14" type="curve" smooth="yes"/>
      <point x="458" y="-14"/>
      <point x="512" y="16"/>
      <point x="554" y="51" type="curve" smooth="yes"/>
      <point x="581" y="73"/>
      <point x="594" y="57"/>
      <point x="599" y="0" type="curve"/>
      <point x="622" y="0" type="line"/>
      <point x="619" y="47"/>
      <point x="618" y="109"/>
      <point x="618" y="220" type="curve"/>
      <point x="595" y="220" type="line"/>
      <point x="585" y="149"/>
      <point x="577" y="116"/>
      <point x="549" y="82" type="curve" smooth="yes"/>
      <point x="515" y="41"/>
      <point x="465" y="16"/>
      <point x="416" y="16" type="curve" smooth="yes"/>
      <point x="315" y="16"/>
      <point x="235" y="116"/>
      <point x="235" y="302" type="curve" smooth="yes"/>
      <point x="235" y="483"/>
      <point x="303" y="592"/>
      <point x="409" y="592" type="curve" smooth="yes"/>
      <point x="458" y="592"/>
      <point x="504" y="566"/>
      <point x="539" y="527" type="curve" smooth="yes"/>
      <point x="562" y="502"/>
      <point x="574" y="487"/>
      <point x="588" y="438" type="curve"/>
      <point x="611" y="438" type="line"/>
      <point x="611" y="524"/>
      <point x="612" y="571"/>
      <point x="615" y="608" type="curve"/>
      <point x="592" y="608" type="line"/>
      <point x="587" y="551"/>
      <point x="573" y="535"/>
      <point x="547" y="557" type="curve" smooth="yes"/>
      <point x="507" y="591"/>
      <point x="465" y="622"/>
      <point x="371" y="622" type="curve" smooth="yes"/>
    </contour>
    <contour>
      <point x="308" y="413"/>
      <point x="248" y="355"/>
      <point x="230" y="232" type="curve"/>
      <point x="234" y="227" type="line"/>
      <point x="252" y="268"/>
      <point x="290" y="285"/>
      <point x="322" y="285" type="curve" smooth="yes"/>
      <point x="376" y="285"/>
      <point x="408" y="213"/>
      <point x="467" y="213" type="curve" smooth="yes"/>
      <point x="527" y="213"/>
      <point x="580" y="272"/>
      <point x="598" y="388" type="curve"/>
      <point x="580" y="391" type="line"/>
      <point x="568" y="352"/>
      <point x="534" y="341"/>
      <point x="515" y="341" type="curve" smooth="yes"/>
      <point x="462" y="341"/>
      <point x="425" y="413"/>
      <point x="362" y="413" type="curve" smooth="yes"/>
    </contour>
  </outline>
</glyph>
<glyph name="el-cy.smcp" format="1">
  <advance width="726"/>
  <outline>
    <contour>
      <point x="658" y="606"/>
      <point x="590" y="605"/>
      <point x="528" y="605" type="curve" smooth="yes"/>
      <point x="487" y="605"/>
      <point x="461" y="608"/>
      <point x="375" y="608" type="curve" smooth="yes"/>
      <point x="340" y="608"/>
      <point x="328" y="606"/>
      <point x="307" y="606" type="curve" smooth="yes"/>
      <point x="278" y="606"/>
      <point x="239" y="606"/>
      <point x="214" y="608" type="curve"/>
      <point x="214" y="588" type="line"/>
      <point x="286" y="585"/>
      <point x="300" y="572"/>
      <point x="295" y="502" type="curve" smooth="yes"/>
      <point x="279" y="276"/>
      <point x="263" y="5"/>
      <point x="109" y="5" type="curve" smooth="yes"/>
      <point x="98" y="5"/>
      <point x="89" y="8"/>
      <point x="84" y="13" type="curve"/>
      <point x="143" y="23"/>
      <point x="188" y="66"/>
      <point x="188" y="126" type="curve" smooth="yes"/>
      <point x="188" y="173"/>
      <point x="153" y="200"/>
      <point x="99" y="200" type="curve" smooth="yes"/>
      <point x="37" y="200"/>
      <point x="-13" y="159"/>
      <point x="-13" y="95" type="curve" smooth="yes"/>
      <point x="-13" y="35"/>
      <point x="38" y="-14"/>
      <point x="109" y="-14" type="curve" smooth="yes"/>
      <point x="301" y="-14"/>
      <point x="297" y="307"/>
      <point x="318" y="502" type="curve" smooth="yes"/>
      <point x="322" y="573"/>
      <point x="325" y="588"/>
      <point x="369" y="588" type="curve" smooth="yes"/>
      <point x="382" y="588" type="line" smooth="yes"/>
      <point x="425" y="588"/>
      <point x="433" y="576"/>
      <point x="433" y="502" type="curve" smooth="yes"/>
      <point x="433" y="106" type="line" smooth="yes"/>
      <point x="433" y="33"/>
      <point x="423" y="23"/>
      <point x="362" y="20" type="curve"/>
      <point x="362" y="0" type="line"/>
      <point x="398" y="2"/>
      <point x="467" y="3"/>
      <point x="535" y="3" type="curve" smooth="yes"/>
      <point x="593" y="3"/>
      <point x="660" y="2"/>
      <point x="697" y="0" type="curve"/>
      <point x="697" y="20" type="line"/>
      <point x="636" y="23"/>
      <point x="626" y="33"/>
      <point x="626" y="106" type="curve" smooth="yes"/>
      <point x="626" y="502" type="line" smooth="yes"/>
      <point x="626" y="575"/>
      <point x="636" y="585"/>
      <point x="697" y="588" type="curve"/>
      <point x="697" y="608" type="line"/>
    </contour>
  </outline>
</glyph>
<glyph name="ereversed-cy.smcp" format="1">
  <advance width="671"/>
  <outline>
    <contour>
      <point x="213" y="622"/>
      <point x="167" y="589"/>
      <point x="124" y="557" type="curve" smooth="yes"/>
      <point x="97" y="537"/>
      <point x="85" y="547"/>
      <point x="79" y="608" type="curve"/>
      <point x="56" y="608" type="line"/>
      <point x="59" y="563"/>
      <point x="60" y="504"/>
      <point x="60" y="398" type="curve"/>
      <point x="83" y="398" type="line"/>
      <point x="92" y="459"/>
      <point x="105" y="495"/>
      <point x="133" y="526" type="curve" smooth="yes"/>
      <point x="169" y="565"/>
      <point x="228" y="592"/>
      <point x="277" y="592" type="curve" smooth="yes"/>
      <point x="374" y="592"/>
      <point x="436" y="482"/>
      <point x="436" y="310" type="curve" smooth="yes"/>
      <point x="436" y="114"/>
      <point x="356" y="16"/>
      <point x="258" y="16" type="curve" smooth="yes"/>
      <point x="207" y="16"/>
      <point x="155" y="42"/>
      <point x="122" y="81" type="curve" smooth="yes"/>
      <point x="100" y="107"/>
      <point x="84" y="139"/>
      <point x="76" y="180" type="curve"/>
      <point x="53" y="180" type="line"/>
      <point x="53" y="89"/>
      <point x="52" y="39"/>
      <point x="49" y="0" type="curve"/>
      <point x="72" y="0" type="line"/>
      <point x="78" y="60"/>
      <point x="89" y="72"/>
      <point x="117" y="51" type="curve" smooth="yes"/>
      <point x="163" y="16"/>
      <point x="206" y="-14"/>
      <point x="300" y="-14" type="curve" smooth="yes"/>
      <point x="493" y="-14"/>
      <point x="636" y="113"/>
      <point x="636" y="310" type="curve" smooth="yes"/>
      <point x="636" y="507"/>
      <point x="494" y="622"/>
      <point x="311" y="622" type="curve" smooth="yes"/>
    </contour>
    <contour>
      <point x="136" y="408"/>
      <point x="82" y="349"/>
      <point x="64" y="233" type="curve"/>
      <point x="82" y="230" type="line"/>
      <point x="92" y="269"/>
      <point x="121" y="280"/>
      <point x="136" y="280" type="curve" smooth="yes"/>
      <point x="197" y="280"/>
      <point x="231" y="208"/>
      <point x="301" y="208" type="curve" smooth="yes"/>
      <point x="354" y="208"/>
      <point x="422" y="261"/>
      <point x="442" y="389" type="curve"/>
      <point x="438" y="394" type="line"/>
      <point x="419" y="354"/>
      <point x="375" y="336"/>
      <point x="344" y="336" type="curve" smooth="yes"/>
      <point x="281" y="336"/>
      <point x="257" y="408"/>
      <point x="193" y="408" type="curve" smooth="yes"/>
    </contour>
  </outline>
</glyph>
<glyph name="ka-cy.smcp" format="1">
  <advance width="739"/>
  <outline>
    <contour>
      <point x="226" y="314" type="line"/>
      <point x="302" y="314" type="line" smooth="yes"/>
      <point x="380" y="314"/>
      <point x="396" y="266"/>
      <point x="406" y="218" type="curve" smooth="yes"/>
      <point x="431" y="94" type="line" smooth="yes"/>
      <point x="447" y="10"/>
      <point x="503" y="-14"/>
      <point x="584" y="-14" type="curve" smooth="yes"/>
      <point x="643" y="-14"/>
      <point x="692" y="-1"/>
      <point x="730" y="40" type="curve"/>
      <point x="717" y="53" type="line"/>
      <point x="708" y="44"/>
      <point x="699" y="40"/>
      <point x="686" y="40" type="curve" smooth="yes"/>
      <point x="670" y="40"/>
      <point x="655" y="45"/>
      <point x="640" y="105" type="curve" smooth="yes"/>
      <point x="619" y="187" type="line" smooth="yes"/>
      <point x="585" y="320"/>
      <point x="432" y="331"/>
      <point x="325" y="331" type="curve" smooth="yes"/>
      <point x="291" y="331"/>
      <point x="258" y="331"/>
      <point x="224" y="331" type="curve"/>
    </contour>
    <contour>
      <point x="537" y="622"/>
      <point x="490" y="610"/>
      <point x="466" y="561" type="curve" smooth="yes"/>
      <point x="427" y="482"/>
      <point x="456" y="341"/>
      <point x="319" y="330" type="curve"/>
      <point x="320" y="317" type="line"/>
      <point x="473" y="322"/>
      <point x="446" y="474"/>
      <point x="487" y="556" type="curve" smooth="yes"/>
      <point x="503" y="588"/>
      <point x="527" y="603"/>
      <point x="563" y="603" type="curve" smooth="yes"/>
      <point x="582" y="603"/>
      <point x="589" y="600"/>
      <point x="596" y="595" type="curve"/>
      <point x="537" y="585"/>
      <point x="492" y="541"/>
      <point x="492" y="485" type="curve" smooth="yes"/>
      <point x="492" y="435"/>
      <point x="527" y="408"/>
      <point x="579" y="408" type="curve" smooth="yes"/>
      <point x="643" y="408"/>
      <point x="693" y="449"/>
      <point x="693" y="512" type="curve" smooth="yes"/>
      <point x="693" y="597"/>
      <point x="619" y="622"/>
      <point x="570" y="622" type="curve" smooth="yes"/>
    </contour>
    <component base="i.smcp"/>
    <contour>
      <point x="370" y="514" type="move" name="top"/>
    </contour>
  </outline>
</glyph>
<glyph name="lje-cy.smcp" format="1">
  <advance width="989"/>
  <outline>
    <contour>
      <point x="567" y="362"/>
      <point x="567" y="342"/>
      <point x="567" y="342" type="curve"/>
      <point x="643" y="342" type="line" smooth="yes"/>
      <point x="745" y="342"/>
      <point x="766" y="266"/>
      <point x="766" y="179" type="curve" smooth="yes"/>
      <point x="766" y="74"/>
      <point x="742" y="19"/>
      <point x="688" y="20" type="curve" smooth="yes"/>
      <point x="665" y="20"/>
      <point x="642" y="15"/>
      <point x="640" y="10" type="curve" smooth="yes"/>
      <point x="638" y="5"/>
      <point x="670" y="0"/>
      <point x="696" y="0" type="curve" smooth="yes"/>
      <point x="881" y="0"/>
      <point x="966" y="66"/>
      <point x="966" y="190" type="curve" smooth="yes"/>
      <point x="966" y="290"/>
      <point x="900" y="362"/>
      <point x="653" y="362" type="curve" smooth="yes"/>
      <point x="567" y="362" type="line"/>
    </contour>
    <component base="el-cy.smcp"/>
  </outline>
</glyph>
<glyph name="zhe-cy.smcp" format="1">
  <advance width="1024"/>
  <outline>
    <contour>
      <point x="555" y="314" type="line"/>
      <point x="610" y="314" type="line" smooth="yes"/>
      <point x="655" y="314"/>
      <point x="677" y="294"/>
      <point x="686" y="250" type="curve" smooth="yes"/>
      <point x="717" y="94" type="line" smooth="yes"/>
      <point x="733" y="10"/>
      <point x="789" y="-14"/>
      <point x="870" y="-14" type="curve" smooth="yes"/>
      <point x="929" y="-14"/>
      <point x="978" y="-1"/>
      <point x="1016" y="40" type="curve"/>
      <point x="1003" y="53" type="line"/>
      <point x="994" y="44"/>
      <point x="985" y="40"/>
      <point x="972" y="40" type="curve" smooth="yes"/>
      <point x="956" y="40"/>
      <point x="941" y="45"/>
      <point x="926" y="105" type="curve" smooth="yes"/>
      <point x="905" y="187" type="line" smooth="yes"/>
      <point x="871" y="320"/>
      <point x="718" y="331"/>
      <point x="611" y="331" type="curve" smooth="yes"/>
      <point x="592" y="331"/>
      <point x="574" y="331"/>
      <point x="555" y="331" type="curve"/>
    </contour>
    <contour>
      <point x="443" y="331"/>
      <point x="425" y="331"/>
      <point x="406" y="331" type="curve" smooth="yes"/>
      <point x="303" y="331"/>
      <point x="153" y="320"/>
      <point x="120" y="187" type="curve" smooth="yes"/>
      <point x="99" y="105" type="line" smooth="yes"/>
      <point x="84" y="45"/>
      <point x="69" y="40"/>
      <point x="53" y="40" type="curve" smooth="yes"/>
      <point x="40" y="40"/>
      <point x="31" y="44"/>
      <point x="22" y="53" type="curve"/>
      <point x="9" y="40" type="line"/>
      <point x="44" y="-1"/>
      <point x="92" y="-14"/>
      <point x="147" y="-14" type="curve" smooth="yes"/>
      <point x="228" y="-14"/>
      <point x="284" y="10"/>
      <point x="300" y="94" type="curve" smooth="yes"/>
      <point x="331" y="250" type="line" smooth="yes"/>
      <point x="340" y="294"/>
      <point x="362" y="314"/>
      <point x="407" y="314" type="curve" smooth="yes"/>
      <point x="462" y="314" type="line"/>
      <point x="462" y="331" type="line"/>
    </contour>
    <contour>
      <point x="120" y="622"/>
      <point x="46" y="597"/>
      <point x="46" y="512" type="curve" smooth="yes"/>
      <point x="46" y="449"/>
      <point x="96" y="408"/>
      <point x="160" y="408" type="curve" smooth="yes"/>
      <point x="212" y="408"/>
      <point x="247" y="435"/>
      <point x="247" y="485" type="curve" smooth="yes"/>
      <point x="247" y="541"/>
      <point x="202" y="585"/>
      <point x="143" y="595" type="curve"/>
      <point x="150" y="600"/>
      <point x="157" y="603"/>
      <point x="176" y="603" type="curve" smooth="yes"/>
      <point x="212" y="603"/>
      <point x="236" y="588"/>
      <point x="252" y="556" type="curve" smooth="yes"/>
      <point x="289" y="474"/>
      <point x="268" y="322"/>
      <point x="403" y="317" type="curve"/>
      <point x="404" y="330" type="line"/>
      <point x="285" y="341"/>
      <point x="306" y="482"/>
      <point x="273" y="561" type="curve" smooth="yes"/>
      <point x="249" y="610"/>
      <point x="202" y="622"/>
      <point x="169" y="622" type="curve" smooth="yes"/>
    </contour>
    <contour>
      <point x="821" y="622"/>
      <point x="774" y="610"/>
      <point x="750" y="561" type="curve" smooth="yes"/>
      <point x="714" y="482"/>
      <point x="741" y="341"/>
      <point x="613" y="330" type="curve"/>
      <point x="614" y="317" type="line"/>
      <point x="758" y="322"/>
      <point x="732" y="474"/>
      <point x="771" y="556" type="curve" smooth="yes"/>
      <point x="787" y="588"/>
      <point x="811" y="603"/>
      <point x="847" y="603" type="curve" smooth="yes"/>
      <point x="866" y="603"/>
      <point x="873" y="600"/>
      <point x="880" y="595" type="curve"/>
      <point x="821" y="585"/>
      <point x="776" y="541"/>
      <point x="776" y="485" type="curve" smooth="yes"/>
      <point x="776" y="435"/>
      <point x="811" y="408"/>
      <point x="863" y="408" type="curve" smooth="yes"/>
      <point x="927" y="408"/>
      <point x="977" y="449"/>
      <point x="977" y="512" type="curve" smooth="yes"/>
      <point x="977" y="597"/>
      <point x="903" y="622"/>
      <point x="854" y="622" type="curve" smooth="yes"/>
    </contour>
    <component base="i.smcp" xOffset="312"/>
  </outline>
</glyph>
